<svg width="50" height="50" viewBox="0 0 50 50" fill="none" xmlns="http://www.w3.org/2000/svg">
<path d="M24.6562 47C10.0937 47 0.671875 40.4786 0.671875 30.4057C0.671875 23.5857 5.14062 14.6914 12.5781 10.0714L13.2187 7.54143C13.5161 6.90437 13.9807 6.36103 14.5625 5.97L12.6719 3.34571L18.5 3H19.1094C20.7829 3.04961 22.4294 3.43683 23.9513 4.13868C25.4732 4.84053 26.8394 5.8427 27.9687 7.08571C40.7969 8.89286 48.6406 21.7 48.6406 30.4057C48.6406 40.4786 39.2344 47 24.6562 47Z" fill="url(#paint0_linear_51_528)"/>
<path d="M24.6562 44.5957C11.5469 44.5957 3.125 39.0329 3.125 30.4057C3.125 24.0415 7.8125 14 16.9062 10.6215L15.1406 9.05002L15.3906 8.50003C15.5655 8.21446 15.8207 7.98743 16.1238 7.84759C16.4269 7.70775 16.7644 7.66137 17.0937 7.71431C17.7357 7.74013 18.3714 7.85109 18.9844 8.04431L17.1875 5.4986H18.6562H19.125C20.6102 5.56182 22.0639 5.94866 23.3858 6.63239C24.7078 7.31611 25.8663 8.2804 26.7812 9.4586C38.6875 10.6057 46.2656 22.6115 46.2656 30.5C46.25 39.0329 37.7656 44.5957 24.6562 44.5957Z" fill="url(#paint1_linear_51_528)"/>
<path d="M26.3594 10.1343C25.4828 8.92408 24.3398 7.93409 23.0198 7.24168C21.6998 6.54928 20.2384 6.17322 18.75 6.14288L21.2656 9.64717C21.2656 9.64717 16.7968 7.51003 16.1875 8.83003L18.5625 10.8729C9.31247 13.4972 3.93747 23.4443 3.93747 30.3429C3.87497 38.6715 12.4062 43.8572 24.6562 43.8572C36.9062 43.8572 45.4531 38.7343 45.4531 30.4686C45.4531 22.5172 37.8125 11.0143 26.3594 10.1343Z" fill="url(#paint2_linear_51_528)"/>
<path d="M35.5781 13.45C32.846 11.5538 29.6675 10.4107 26.3594 10.1343C25.4828 8.92408 24.3399 7.93409 23.0198 7.24168C21.6998 6.54928 20.2385 6.17322 18.75 6.14288L21.2656 9.64717C21.2656 9.64717 16.7969 7.51003 16.1875 8.83003L18.5625 10.8729C9.3125 13.4972 3.9375 23.4443 3.9375 30.3429C3.9375 34.8372 6.46875 38.4043 10.7344 40.73C10.6144 40.0761 10.5413 39.4144 10.5156 38.75C10.4614 37.9285 10.4614 37.1044 10.5156 36.2829C10.5156 35.7172 10.5781 35.12 10.7031 34.4915C10.8125 33.8157 10.9375 33.1086 11.125 32.3543C11.3019 31.6313 11.5157 30.918 11.7656 30.2172C12.0837 29.311 12.4541 28.4242 12.875 27.5615C13.2344 26.8543 13.625 26.1472 14.0781 25.4243C14.5071 24.7354 14.9713 24.0693 15.4688 23.4286C15.9375 22.8105 16.4583 22.1976 17.0313 21.59C17.8366 20.702 18.7033 19.8723 19.625 19.1072C20.1233 18.6801 20.6449 18.2814 21.1875 17.9129C21.7031 17.5357 22.2344 17.19 22.75 16.8757C23.75 16.2721 24.7948 15.7467 25.875 15.3043C26.4219 15.0686 26.9375 14.8643 27.4375 14.6915L29 14.22C29.8794 13.9812 30.7714 13.7923 31.6719 13.6543C32.2969 13.56 32.8594 13.5129 33.3594 13.4815C34.0968 13.4095 34.839 13.399 35.5781 13.45Z" fill="url(#paint3_linear_51_528)"/>
<path d="M24.5156 39.6143C23.4609 39.6289 22.4093 39.4967 21.3906 39.2214C20.5001 38.9823 19.6478 38.6173 18.8594 38.1371C18.1479 37.7009 17.4965 37.1726 16.9219 36.5657C16.4304 36.003 15.996 35.3923 15.625 34.7429L14.6562 33.0929L17.7812 30.6257L15.8594 30.3586L16.8594 15.0529H33.1562V23.1614H30.5469C31.0254 23.4581 31.4707 23.8058 31.875 24.1986C32.6451 24.9777 33.2556 25.9014 33.6719 26.9171C34.127 28.0238 34.3657 29.2082 34.375 30.4057C34.3811 31.6345 34.164 32.854 33.7344 34.0043C33.3018 35.1484 32.6181 36.1797 31.7344 37.0214C30.8322 37.8701 29.7695 38.5275 28.6094 38.9543C27.2956 39.4209 25.9086 39.6445 24.5156 39.6143ZM22.9531 30.7986C23.1482 31.0651 23.3737 31.3078 23.625 31.5214C23.913 31.7203 24.262 31.8094 24.6094 31.7729C24.8477 31.8006 25.0886 31.7511 25.2969 31.6314C25.4639 31.3702 25.5408 31.061 25.5156 30.7514V30.5314C25.5156 30.06 25.4062 29.95 25.3594 29.9029C25.1668 29.7869 24.9419 29.7372 24.7187 29.7614C24.4575 29.7468 24.1962 29.7897 23.9531 29.8871C23.713 30.0308 23.4924 30.2051 23.2969 30.4057L22.9531 30.7986Z" fill="url(#paint4_linear_51_528)"/>
<path d="M30.9688 20.9771H21.9531L21.5313 27.2628H21.7656C21.9381 26.8139 22.1526 26.3824 22.4063 25.9743C22.6267 25.601 22.9064 25.2666 23.2344 24.9843C23.5807 24.6965 23.9784 24.4778 24.4063 24.34C24.9121 24.1832 25.4396 24.1089 25.9688 24.12C26.7848 24.1121 27.5953 24.256 28.3594 24.5443C29.0833 24.8121 29.7434 25.2297 30.2969 25.77C30.8602 26.3423 31.3061 27.0204 31.6094 27.7657C31.9321 28.6129 32.0912 29.5143 32.0781 30.4214C32.0888 31.3809 31.9246 32.3343 31.5938 33.2343C31.2645 34.0769 30.7582 34.8381 30.1094 35.4657C29.41 36.1064 28.5925 36.6029 27.7031 36.9271C26.6636 37.2895 25.5688 37.465 24.4688 37.4457C23.6041 37.4634 22.7413 37.3576 21.9063 37.1314C21.2199 36.9463 20.5626 36.666 19.9531 36.2986C19.3785 35.9709 18.8525 35.5635 18.3906 35.0886C17.9907 34.6387 17.6299 34.155 17.3125 33.6428L20.4375 31.1914C20.8356 31.9406 21.3649 32.6114 22 33.1714C22.6839 33.7363 23.5539 34.0223 24.4375 33.9728C24.8636 34.0062 25.2917 33.9446 25.6914 33.7925C26.0912 33.6404 26.4526 33.4015 26.75 33.0928C27.2925 32.4443 27.5715 31.6137 27.5313 30.7671V30.5471C27.5623 30.1464 27.5062 29.7437 27.3668 29.3671C27.2273 28.9904 27.0079 28.6488 26.7239 28.3661C26.4398 28.0834 26.0979 27.8664 25.7219 27.7301C25.3459 27.5939 24.945 27.5417 24.5469 27.5771C23.8751 27.5512 23.2095 27.7145 22.625 28.0486C22.2038 28.3027 21.8199 28.6148 21.4844 28.9757L17.9844 28.4886L18.7187 17.2686H30.8594L30.9688 20.9771Z" fill="white"/>
<path d="M41.3906 8.49998C45.6875 6.39426 49.7969 8.98712 50 12.4285C50 12.4285 47.9219 10.3228 45.3125 13.2614C43.0469 15.87 43.8281 21.5271 43.8281 21.5271C41.6623 21.0858 39.7267 19.8754 38.375 18.1171C37.1426 16.7141 36.2306 15.0567 35.7031 13.2614C35.7031 13.2614 35.5156 11.4071 41.3906 8.49998ZM8.57812 8.49998C4.3125 6.39426 0.203125 8.98712 0 12.4285C0 12.4285 2.07812 10.3228 4.6875 13.2614C6.95312 15.87 6.25 21.5271 6.25 21.5271C8.41583 21.0858 10.3514 19.8754 11.7031 18.1171C12.9016 16.7206 13.7863 15.0804 14.2969 13.3085C14.2969 13.3085 14.4844 11.4071 8.60938 8.49998H8.57812Z" fill="url(#paint5_linear_51_528)"/>
<defs>
<linearGradient id="paint0_linear_51_528" x1="24.6562" y1="47" x2="24.6562" y2="3" gradientUnits="userSpaceOnUse">
<stop stop-color="#323232"/>
<stop offset="0.5" stop-color="#656565"/>
<stop offset="0.54" stop-color="#808080"/>
<stop offset="0.58" stop-color="#969696"/>
<stop offset="0.63" stop-color="#A7A7A7"/>
<stop offset="0.69" stop-color="#B2B2B2"/>
<stop offset="0.77" stop-color="#B9B9B9"/>
<stop offset="1" stop-color="#BBBBBB"/>
</linearGradient>
<linearGradient id="paint1_linear_51_528" x1="9.98437" y1="42.2386" x2="38.0967" y2="14.3016" gradientUnits="userSpaceOnUse">
<stop stop-color="#C8C8C8" stop-opacity="0.7"/>
<stop offset="1" stop-color="#808080"/>
</linearGradient>
<linearGradient id="paint2_linear_51_528" x1="15.9687" y1="20.3643" x2="42.3944" y2="45.7181" gradientUnits="userSpaceOnUse">
<stop stop-color="#808080"/>
<stop offset="1" stop-color="#808080" stop-opacity="0"/>
</linearGradient>
<linearGradient id="paint3_linear_51_528" x1="19.3125" y1="23.6957" x2="11.6737" y2="15.7878" gradientUnits="userSpaceOnUse">
<stop stop-color="#646464" stop-opacity="0.2"/>
<stop offset="1" stop-color="#323232"/>
</linearGradient>
<linearGradient id="paint4_linear_51_528" x1="24.4531" y1="39.6143" x2="24.4531" y2="15.0529" gradientUnits="userSpaceOnUse">
<stop stop-color="#323232"/>
<stop offset="1" stop-color="#646464"/>
</linearGradient>
<linearGradient id="paint5_linear_51_528" x1="812" y1="193.709" x2="810.325" y2="54.9186" gradientUnits="userSpaceOnUse">
<stop stop-color="#323232"/>
<stop offset="1" stop-color="#646464"/>
</linearGradient>
</defs>
</svg>
