<svg width="50" height="50" viewBox="0 0 50 50" fill="none" xmlns="http://www.w3.org/2000/svg">
<path d="M24.6562 47C10.0938 47 0.671875 40.4786 0.671875 30.4057C0.671875 23.5857 5.14062 14.6914 12.5781 10.0714L13.2188 7.54143C13.5161 6.90437 13.9807 6.36103 14.5625 5.97L12.6719 3.34571L18.5 3H19.1094C20.7829 3.04961 22.4294 3.43683 23.9513 4.13868C25.4732 4.84053 26.8394 5.8427 27.9687 7.08571C40.7969 8.89286 48.6406 21.7 48.6406 30.4057C48.6406 40.4786 39.2344 47 24.6562 47Z" fill="url(#paint0_linear_51_526)"/>
<path d="M24.6562 44.5957C11.5469 44.5957 3.125 39.0329 3.125 30.4057C3.125 24.0415 7.8125 14 16.9062 10.6215L15.1406 9.05002L15.3906 8.50002C15.5655 8.21446 15.8207 7.98743 16.1238 7.84759C16.4269 7.70775 16.7644 7.66137 17.0937 7.71431C17.7357 7.74013 18.3714 7.85109 18.9844 8.04431L17.1875 5.4986H18.6562H19.125C20.6102 5.56182 22.0639 5.94866 23.3858 6.63239C24.7078 7.31611 25.8663 8.2804 26.7812 9.4586C38.6875 10.6057 46.2656 22.6115 46.2656 30.5C46.25 39.0329 37.7656 44.5957 24.6562 44.5957Z" fill="url(#paint1_linear_51_526)"/>
<path d="M26.3594 10.1343C25.4828 8.92408 24.3398 7.93409 23.0198 7.24168C21.6998 6.54928 20.2384 6.17322 18.75 6.14288L21.2656 9.64717C21.2656 9.64717 16.7968 7.51003 16.1875 8.83003L18.5625 10.8729C9.31247 13.4972 3.93747 23.4443 3.93747 30.3429C3.87497 38.6715 12.4062 43.8572 24.6562 43.8572C36.9062 43.8572 45.4531 38.7343 45.4531 30.4686C45.4531 22.5172 37.8125 11.0143 26.3594 10.1343Z" fill="url(#paint2_linear_51_526)"/>
<path d="M35.5781 13.45C32.846 11.5538 29.6675 10.4107 26.3594 10.1343C25.4828 8.92408 24.3398 7.93409 23.0198 7.24168C21.6998 6.54928 20.2385 6.17322 18.75 6.14288L21.2656 9.64717C21.2656 9.64717 16.7969 7.51003 16.1875 8.83003L18.5625 10.8729C9.3125 13.4972 3.9375 23.4443 3.9375 30.3429C3.9375 34.8372 6.46875 38.4043 10.7344 40.73C10.6144 40.0761 10.5413 39.4144 10.5156 38.75C10.4614 37.9285 10.4614 37.1044 10.5156 36.2829C10.5156 35.7172 10.5781 35.12 10.7031 34.4915C10.8125 33.8157 10.9375 33.1086 11.125 32.3543C11.3019 31.6313 11.5157 30.918 11.7656 30.2172C12.0837 29.311 12.4541 28.4242 12.875 27.5615C13.2344 26.8543 13.625 26.1472 14.0781 25.4243C14.5071 24.7354 14.9713 24.0693 15.4687 23.4286C15.9375 22.8105 16.4583 22.1976 17.0312 21.59C17.8366 20.702 18.7033 19.8723 19.625 19.1072C20.1233 18.6801 20.6449 18.2814 21.1875 17.9129C21.7031 17.5357 22.2344 17.19 22.75 16.8757C23.75 16.2721 24.7948 15.7467 25.875 15.3043C26.4219 15.0686 26.9375 14.8643 27.4375 14.6915L29 14.22C29.8794 13.9812 30.7714 13.7923 31.6719 13.6543C32.2969 13.56 32.8594 13.5129 33.3594 13.4815C34.0968 13.4095 34.8389 13.399 35.5781 13.45Z" fill="url(#paint3_linear_51_526)"/>
<path d="M23.25 39.2843V35.4657H14.5156V28.9914L23.2187 15.0529H31.6719V27.7657H34.1719V35.4657H31.6719V39.2843H23.25Z" fill="url(#paint4_linear_51_526)"/>
<path d="M25.4219 37.0843V33.2814H16.7031V29.62L24.5156 17.2529H29.5781V29.95H32.0781V33.2814H29.5781V37.0843H25.4219ZM20.1094 29.95H25.4219V21.6529H25.1406L20.1094 29.95Z" fill="white"/>
<path d="M41.3906 8.49998C45.6875 6.39426 49.7969 8.98712 50 12.4285C50 12.4285 47.9219 10.3228 45.3125 13.2614C43.0469 15.87 43.8281 21.5271 43.8281 21.5271C41.6623 21.0858 39.7267 19.8754 38.375 18.1171C37.1426 16.7141 36.2306 15.0567 35.7031 13.2614C35.7031 13.2614 35.5156 11.4071 41.3906 8.49998ZM8.57812 8.49998C4.3125 6.39426 0.203125 8.98712 0 12.4285C0 12.4285 2.07812 10.3228 4.6875 13.2614C6.95312 15.87 6.25 21.5271 6.25 21.5271C8.41583 21.0858 10.3514 19.8754 11.7031 18.1171C12.9016 16.7206 13.7863 15.0804 14.2969 13.3086C14.2969 13.3086 14.4844 11.4071 8.60938 8.49998H8.57812Z" fill="url(#paint5_linear_51_526)"/>
<defs>
<linearGradient id="paint0_linear_51_526" x1="24.6563" y1="47" x2="24.6563" y2="3" gradientUnits="userSpaceOnUse">
<stop stop-color="#603213"/>
<stop offset="0.5" stop-color="#9C4D03"/>
<stop offset="0.55" stop-color="#A85A19"/>
<stop offset="0.6" stop-color="#B1642A"/>
<stop offset="0.66" stop-color="#B76B35"/>
<stop offset="0.75" stop-color="#BB6F3C"/>
<stop offset="1" stop-color="#BC703E"/>
</linearGradient>
<linearGradient id="paint1_linear_51_526" x1="9.98437" y1="42.2386" x2="38.0967" y2="14.3016" gradientUnits="userSpaceOnUse">
<stop stop-color="#BC703E" stop-opacity="0.7"/>
<stop offset="1" stop-color="#603213"/>
</linearGradient>
<linearGradient id="paint2_linear_51_526" x1="15.9687" y1="20.3643" x2="42.3944" y2="45.7181" gradientUnits="userSpaceOnUse">
<stop stop-color="#CD7F1C"/>
<stop offset="1" stop-color="#CD7F1C" stop-opacity="0"/>
</linearGradient>
<linearGradient id="paint3_linear_51_526" x1="19.3125" y1="23.6957" x2="11.6737" y2="15.7878" gradientUnits="userSpaceOnUse">
<stop stop-color="#603213" stop-opacity="0.2"/>
<stop offset="1" stop-color="#603213"/>
</linearGradient>
<linearGradient id="paint4_linear_51_526" x1="24.3437" y1="39.2843" x2="24.3437" y2="15.0529" gradientUnits="userSpaceOnUse">
<stop stop-color="#603213"/>
<stop offset="1" stop-color="#9A4B00"/>
</linearGradient>
<linearGradient id="paint5_linear_51_526" x1="25.375" y1="21.0557" x2="24.6796" y2="5.26318" gradientUnits="userSpaceOnUse">
<stop offset="0.01" stop-color="#603213"/>
<stop offset="1" stop-color="#9A4B00"/>
</linearGradient>
</defs>
</svg>
