<svg width="50" height="50" viewBox="0 0 50 50" fill="none" xmlns="http://www.w3.org/2000/svg">
<path d="M24.6564 47C10.0939 47 0.671997 40.4786 0.671997 30.4057C0.671997 23.5857 5.14075 14.6914 12.5782 10.0714L13.2189 7.54143C13.5162 6.90437 13.9808 6.36103 14.5626 5.97L12.672 3.34571L18.5001 3H19.1095C20.783 3.04961 22.4296 3.43683 23.9514 4.13868C25.4733 4.84053 26.8395 5.8427 27.9689 7.08571C40.797 8.89286 48.6407 21.7 48.6407 30.4057C48.6407 40.4786 39.2345 47 24.6564 47Z" fill="url(#paint0_linear_48_941)"/>
<path d="M24.6562 44.5957C11.5469 44.5957 3.125 39.0329 3.125 30.4057C3.125 24.0415 7.8125 14 16.9062 10.6215L15.1406 9.05002L15.3906 8.50003C15.5655 8.21446 15.8207 7.98743 16.1238 7.84759C16.4269 7.70775 16.7644 7.66137 17.0937 7.71431C17.7357 7.74013 18.3714 7.85109 18.9844 8.04431L17.1875 5.4986H18.6562H19.125C20.6102 5.56182 22.0639 5.94866 23.3858 6.63239C24.7078 7.31611 25.8663 8.2804 26.7812 9.4586C38.6875 10.6057 46.2656 22.6115 46.2656 30.5C46.25 39.0329 37.7656 44.5957 24.6562 44.5957Z" fill="url(#paint1_linear_48_941)"/>
<path d="M26.3594 10.1343C25.4828 8.92408 24.3398 7.93409 23.0198 7.24168C21.6998 6.54928 20.2384 6.17322 18.75 6.14288L21.2656 9.64717C21.2656 9.64717 16.7969 7.51003 16.1875 8.83003L18.5625 10.8729C9.31248 13.4972 3.93747 23.4443 3.93747 30.3429C3.87497 38.6715 12.4062 43.8572 24.6562 43.8572C36.9062 43.8572 45.4531 38.7343 45.4531 30.4686C45.4531 22.5172 37.8125 11.0143 26.3594 10.1343Z" fill="url(#paint2_linear_48_941)"/>
<path d="M35.5781 13.45C32.846 11.5538 29.6675 10.4107 26.3594 10.1343C25.4828 8.92408 24.3398 7.93409 23.0198 7.24168C21.6998 6.54928 20.2385 6.17322 18.75 6.14288L21.2656 9.64717C21.2656 9.64717 16.7969 7.51003 16.1875 8.83003L18.5625 10.8729C9.3125 13.4972 3.9375 23.4443 3.9375 30.3429C3.9375 34.8372 6.46875 38.4043 10.7344 40.73C10.6144 40.0761 10.5413 39.4144 10.5156 38.75C10.4614 37.9285 10.4614 37.1044 10.5156 36.2829C10.5156 35.7172 10.5781 35.12 10.7031 34.4915C10.8125 33.8157 10.9375 33.1086 11.125 32.3543C11.3019 31.6313 11.5157 30.918 11.7656 30.2172C12.0837 29.311 12.4541 28.4242 12.875 27.5615C13.2344 26.8543 13.625 26.1472 14.0781 25.4243C14.5071 24.7354 14.9713 24.0693 15.4688 23.4286C15.9375 22.8105 16.4583 22.1976 17.0313 21.59C17.8366 20.702 18.7033 19.8723 19.625 19.1072C20.1233 18.6801 20.6449 18.2814 21.1875 17.9129C21.7031 17.5357 22.2344 17.19 22.75 16.8757C23.75 16.2721 24.7948 15.7467 25.875 15.3043C26.4219 15.0686 26.9375 14.8643 27.4375 14.6915L29 14.22C29.8794 13.9812 30.7714 13.7923 31.6719 13.6543C32.2969 13.56 32.8594 13.5129 33.3594 13.4815C34.0968 13.4095 34.8389 13.399 35.5781 13.45Z" fill="url(#paint3_linear_48_941)"/>
<path d="M15.625 39.2843V32.1971L22.5469 26.2728L14.5938 23.2557L15.25 21.2757C15.547 20.4137 15.9456 19.5907 16.4375 18.8243C16.9721 17.9981 17.6432 17.27 18.4219 16.6714C19.2599 16.033 20.2006 15.544 21.2031 15.2257C22.3109 14.8805 23.4653 14.7108 24.625 14.7228C25.8577 14.7037 27.0844 14.9004 28.25 15.3043C29.2966 15.6831 30.2617 16.2591 31.0937 17.0014C31.8991 17.7393 32.5338 18.6458 32.9531 19.6571C33.3759 20.6774 33.5886 21.7733 33.5781 22.8785C33.5806 23.9531 33.3846 25.0188 33 26.0214C32.6235 26.9164 32.1295 27.7568 31.5312 28.52C30.9393 29.2707 30.2746 29.9603 29.5469 30.5786L28.6875 31.3014H33.9844V39.2686L15.625 39.2843ZM24.2969 22.7843C24.1724 22.7678 24.0463 22.7678 23.9219 22.7843C23.8382 22.8196 23.7635 22.8733 23.7031 22.9414C23.5982 23.033 23.5131 23.1454 23.4531 23.2714C23.3549 23.4601 23.2814 23.6608 23.2344 23.8686L22.6719 26.1157C23.0937 25.7385 23.4531 25.3928 23.75 25.0943C23.9935 24.8543 24.2133 24.5912 24.4062 24.3086C24.5149 24.1492 24.5992 23.9744 24.6562 23.79C24.6819 23.6023 24.6819 23.412 24.6562 23.2243V22.8314H24.5469C24.4458 22.7991 24.3404 22.7832 24.2344 22.7843H24.2969Z" fill="url(#paint4_linear_48_941)"/>
<path d="M31.7969 37.0843H17.7344V33.2028L23.8438 27.97C24.3906 27.4986 24.8594 27.0586 25.2344 26.6657C25.5838 26.3211 25.8979 25.9421 26.1719 25.5343C26.3929 25.1952 26.5615 24.8243 26.6719 24.4343C26.7815 24.0567 26.8342 23.6647 26.8281 23.2714V22.8786C26.824 22.5214 26.7328 22.1706 26.5625 21.8571C26.4162 21.573 26.2079 21.3259 25.9531 21.1343C25.7067 20.9407 25.4255 20.7967 25.125 20.71C24.8157 20.617 24.4947 20.5694 24.1719 20.5686C23.7485 20.5586 23.3278 20.639 22.9375 20.8043C22.5972 20.9374 22.2885 21.1408 22.0313 21.4014C21.7697 21.6621 21.5532 21.9648 21.3906 22.2971C21.2137 22.6304 21.0774 22.9839 20.9844 23.35L17.2656 21.9357C17.5015 21.2516 17.8162 20.5977 18.2031 19.9871C18.629 19.3758 19.1578 18.844 19.7656 18.4157C20.3974 17.9209 21.1116 17.5431 21.875 17.3C22.7654 17.0244 23.6935 16.8919 24.625 16.9071C25.6022 16.8926 26.5746 17.0467 27.5 17.3628C28.2793 17.6394 29.0001 18.0605 29.625 18.6043C30.1946 19.1347 30.6425 19.7835 30.9375 20.5057C31.242 21.259 31.396 22.0654 31.3906 22.8786C31.4014 23.674 31.2581 24.4639 30.9688 25.2043C30.6818 25.9177 30.2922 26.5848 29.8125 27.1843C29.3074 27.8192 28.7423 28.4034 28.125 28.9286C27.4844 29.4786 26.8125 30.0443 26.1094 30.61L22.4219 33.5014H31.7969V37.0843Z" fill="white"/>
<path d="M41.3906 8.49998C45.6875 6.39426 49.7969 8.98712 50 12.4285C50 12.4285 47.9219 10.3228 45.3125 13.2614C43.0469 15.87 43.8281 21.5271 43.8281 21.5271C41.6623 21.0858 39.7267 19.8754 38.375 18.1171C37.1426 16.7141 36.2306 15.0567 35.7031 13.2614C35.7031 13.2614 35.5156 11.4071 41.3906 8.49998ZM8.57812 8.49998C4.3125 6.39426 0.203125 8.98712 0 12.4285C0 12.4285 2.07812 10.3228 4.6875 13.2614C6.95312 15.87 6.25 21.5271 6.25 21.5271C8.41583 21.0858 10.3514 19.8754 11.7031 18.1171C12.9016 16.7206 13.7863 15.0804 14.2969 13.3085C14.2969 13.3085 14.4844 11.4071 8.60938 8.49998H8.57812Z" fill="url(#paint5_linear_48_941)"/>
<defs>
<linearGradient id="paint0_linear_48_941" x1="24.6564" y1="47" x2="24.6564" y2="3" gradientUnits="userSpaceOnUse">
<stop stop-color="#B24A10"/>
<stop offset="0.5" stop-color="#C4B266"/>
<stop offset="0.55" stop-color="#DAC56F"/>
<stop offset="0.6" stop-color="#EBD376"/>
<stop offset="0.66" stop-color="#F6DD7B"/>
<stop offset="0.75" stop-color="#FDE37D"/>
<stop offset="1" stop-color="#FFE57E"/>
</linearGradient>
<linearGradient id="paint1_linear_48_941" x1="9.98437" y1="42.2386" x2="38.0967" y2="14.3016" gradientUnits="userSpaceOnUse">
<stop stop-color="#F2D53C" stop-opacity="0.7"/>
<stop offset="1" stop-color="#B24A10"/>
</linearGradient>
<linearGradient id="paint2_linear_48_941" x1="15.9687" y1="20.3643" x2="42.3944" y2="45.7181" gradientUnits="userSpaceOnUse">
<stop stop-color="#CD7F1C"/>
<stop offset="1" stop-color="#CD7F1C" stop-opacity="0"/>
</linearGradient>
<linearGradient id="paint3_linear_48_941" x1="19.3125" y1="23.6957" x2="11.6737" y2="15.7878" gradientUnits="userSpaceOnUse">
<stop stop-color="#B24A10" stop-opacity="0.2"/>
<stop offset="1" stop-color="#B24A10"/>
</linearGradient>
<linearGradient id="paint4_linear_48_941" x1="24.2812" y1="39.2843" x2="24.2812" y2="14.7228" gradientUnits="userSpaceOnUse">
<stop offset="0.01" stop-color="#B24A10"/>
<stop offset="1" stop-color="#CD7F1C"/>
</linearGradient>
<linearGradient id="paint5_linear_48_941" x1="812" y1="193.709" x2="810.325" y2="54.9186" gradientUnits="userSpaceOnUse">
<stop offset="0.01" stop-color="#B24A10"/>
<stop offset="1" stop-color="#CD7F1C"/>
</linearGradient>
</defs>
</svg>
