<svg width="50" height="50" viewBox="0 0 50 50" fill="none" xmlns="http://www.w3.org/2000/svg">
<path d="M24.6562 47C10.0937 47 0.671875 40.4786 0.671875 30.4057C0.671875 23.5857 5.14062 14.6914 12.5781 10.0714L13.2187 7.54143C13.5161 6.90437 13.9807 6.36103 14.5625 5.97L12.6719 3.34571L18.5 3H19.1094C20.7829 3.04961 22.4294 3.43683 23.9513 4.13868C25.4732 4.84053 26.8394 5.8427 27.9687 7.08571C40.7969 8.89286 48.6406 21.7 48.6406 30.4057C48.6406 40.4786 39.2344 47 24.6562 47Z" fill="url(#paint0_linear_51_530)"/>
<path d="M24.6562 44.5957C11.5469 44.5957 3.125 39.0329 3.125 30.4057C3.125 24.0415 7.8125 14 16.9062 10.6215L15.1406 9.05003L15.3906 8.50003C15.5655 8.21446 15.8207 7.98743 16.1238 7.84759C16.4269 7.70775 16.7644 7.66137 17.0937 7.71431C17.7357 7.74013 18.3714 7.85109 18.9844 8.04431L17.1875 5.4986H18.6562H19.125C20.6102 5.56182 22.0639 5.94866 23.3858 6.63239C24.7078 7.31611 25.8663 8.2804 26.7812 9.4586C38.6875 10.6057 46.2656 22.6115 46.2656 30.5C46.25 39.0329 37.7656 44.5957 24.6562 44.5957Z" fill="url(#paint1_linear_51_530)"/>
<path d="M26.3594 10.1343C25.4828 8.92408 24.3398 7.93409 23.0198 7.24168C21.6998 6.54928 20.2384 6.17322 18.75 6.14288L21.2656 9.64717C21.2656 9.64717 16.7968 7.51003 16.1875 8.83003L18.5625 10.8729C9.31247 13.4972 3.93747 23.4443 3.93747 30.3429C3.87497 38.6715 12.4062 43.8572 24.6562 43.8572C36.9062 43.8572 45.4531 38.7343 45.4531 30.4686C45.4531 22.5172 37.8125 11.0143 26.3594 10.1343Z" fill="url(#paint2_linear_51_530)"/>
<path d="M35.5781 13.45C32.846 11.5538 29.6675 10.4107 26.3594 10.1343C25.4828 8.92408 24.3398 7.93409 23.0198 7.24168C21.6998 6.54928 20.2385 6.17322 18.75 6.14288L21.2656 9.64717C21.2656 9.64717 16.7969 7.51003 16.1875 8.83003L18.5625 10.8729C9.3125 13.4972 3.9375 23.4443 3.9375 30.3429C3.9375 34.8372 6.46875 38.4043 10.7344 40.73C10.6144 40.0762 10.5413 39.4144 10.5156 38.75C10.4614 37.9286 10.4614 37.1044 10.5156 36.2829C10.5156 35.7172 10.5781 35.12 10.7031 34.4915C10.8125 33.8157 10.9375 33.1086 11.125 32.3543C11.3019 31.6313 11.5157 30.918 11.7656 30.2172C12.0837 29.311 12.4541 28.4242 12.875 27.5615C13.2344 26.8543 13.625 26.1472 14.0781 25.4243C14.5071 24.7354 14.9713 24.0693 15.4688 23.4286C15.9375 22.8105 16.4583 22.1976 17.0313 21.59C17.8366 20.702 18.7033 19.8723 19.625 19.1072C20.1233 18.6801 20.6449 18.2814 21.1875 17.9129C21.7031 17.5357 22.2344 17.19 22.75 16.8757C23.75 16.2721 24.7948 15.7467 25.875 15.3043C26.4219 15.0686 26.9375 14.8643 27.4375 14.6915L29 14.22C29.8794 13.9812 30.7714 13.7923 31.6719 13.6543C32.2969 13.56 32.8594 13.5129 33.3594 13.4815C34.0968 13.4095 34.8389 13.399 35.5781 13.45Z" fill="url(#paint3_linear_51_530)"/>
<path d="M23.9219 39.6143C22.8322 39.6269 21.7454 39.5002 20.6875 39.2371C19.7717 38.9998 18.8934 38.6349 18.0781 38.1529C17.3576 37.7161 16.6959 37.1879 16.1094 36.5814C15.6037 36.0282 15.1438 35.4343 14.7344 34.8057L13.6875 33.1243L19.5469 28.5829V25.44L14.2969 20.4743L15.5156 18.9029C15.9564 18.3399 16.4424 17.8143 16.9687 17.3314C17.5513 16.7868 18.2028 16.3219 18.9062 15.9486C19.6585 15.5572 20.4563 15.2616 21.2812 15.0686C22.2041 14.86 23.1479 14.7598 24.0937 14.77C25.2708 14.7544 26.4441 14.9079 27.5781 15.2257C28.6312 15.5099 29.6222 15.9896 30.5 16.64C31.696 17.5478 32.5676 18.8206 32.9845 20.2681C33.4013 21.7156 33.341 23.2599 32.8125 24.67C32.5387 25.366 32.1475 26.0092 31.6562 26.5714L31.875 26.8071C32.4389 27.4178 32.8794 28.133 33.1719 28.9129C33.4917 29.7445 33.6508 30.6298 33.6406 31.5214C33.6508 32.7041 33.3831 33.8725 32.8594 34.9314C32.3591 35.9665 31.6263 36.8704 30.7187 37.5714C29.7828 38.2853 28.7232 38.8182 27.5937 39.1429C26.3995 39.4808 25.1622 39.6397 23.9219 39.6143Z" fill="url(#paint4_linear_51_530)"/>
<path d="M23.5781 25.0942C24.3961 25.164 25.213 24.9475 25.8906 24.4814C26.1273 24.296 26.3172 24.0571 26.4448 23.7841C26.5724 23.511 26.6342 23.2115 26.625 22.91V22.7214C26.6381 22.397 26.5821 22.0736 26.4609 21.7728C26.3396 21.472 26.1558 21.2007 25.9219 20.9771C25.3733 20.5141 24.6676 20.2831 23.9531 20.3328C23.1621 20.331 22.3851 20.5427 21.7031 20.9457C20.9752 21.3702 20.3633 21.9695 19.9219 22.69L17.1875 20.2857C17.5525 19.7992 17.9604 19.3469 18.4062 18.9342C18.8456 18.5173 19.3398 18.163 19.875 17.8814C20.5055 17.5456 21.1783 17.2971 21.875 17.1428C22.6293 16.977 23.3998 16.8979 24.1719 16.9071C25.1419 16.8988 26.1087 17.0204 27.0469 17.2685C27.8448 17.4864 28.5966 17.8484 29.2656 18.3371C29.8613 18.7742 30.3481 19.3444 30.6875 20.0028C31.0239 20.6752 31.1954 21.4187 31.1875 22.1714C31.1975 22.751 31.0967 23.3272 30.8906 23.8685C30.7051 24.3644 30.4236 24.8184 30.0625 25.2042C29.7188 25.5821 29.3115 25.8959 28.8594 26.1314C28.4027 26.3711 27.9129 26.5406 27.4062 26.6342V26.8071C27.9762 26.9117 28.5285 27.0968 29.0469 27.3571C30.0082 27.8585 30.7532 28.6972 31.1406 29.7142C31.3546 30.2976 31.4605 30.9154 31.4531 31.5371C31.4628 32.3758 31.2754 33.205 30.9062 33.9571C30.5312 34.6859 29.997 35.3198 29.3437 35.8114C28.624 36.3459 27.8141 36.7452 26.9531 36.99C25.9361 37.275 24.8838 37.4126 23.8281 37.3985C22.9275 37.4158 22.0286 37.3101 21.1562 37.0842C20.4436 36.9041 19.7598 36.6237 19.125 36.2514C18.5482 35.927 18.0218 35.5193 17.5625 35.0414C17.1384 34.6002 16.7614 34.1157 16.4375 33.5957L19.5625 31.1442C19.9444 31.913 20.4757 32.597 21.125 33.1557C21.8697 33.7051 22.781 33.9773 23.7031 33.9257C24.5216 33.9779 25.3299 33.7201 25.9687 33.2028C26.2714 32.9816 26.5201 32.694 26.6961 32.3619C26.872 32.0297 26.9706 31.6617 26.9844 31.2857V31.1128C27.008 30.7515 26.935 30.3904 26.7728 30.067C26.6107 29.7437 26.3654 29.47 26.0625 29.2742C25.2917 28.8232 24.406 28.61 23.5156 28.6614H21.7344V25.0942H23.5781Z" fill="white"/>
<path d="M41.3906 8.49998C45.6875 6.39426 49.7969 8.98712 50 12.4285C50 12.4285 47.9219 10.3228 45.3125 13.2614C43.0469 15.87 43.8281 21.5271 43.8281 21.5271C41.6623 21.0858 39.7267 19.8754 38.375 18.1171C37.1426 16.7141 36.2306 15.0567 35.7031 13.2614C35.7031 13.2614 35.5156 11.4071 41.3906 8.49998ZM8.57812 8.49998C4.3125 6.39426 0.203125 8.98712 0 12.4285C0 12.4285 2.07812 10.3228 4.6875 13.2614C6.95312 15.87 6.25 21.5271 6.25 21.5271C8.41583 21.0858 10.3514 19.8754 11.7031 18.1171C12.9016 16.7206 13.7863 15.0804 14.2969 13.3086C14.2969 13.3086 14.4844 11.4071 8.60938 8.49998H8.57812Z" fill="url(#paint5_linear_51_530)"/>
<defs>
<linearGradient id="paint0_linear_51_530" x1="24.6562" y1="47" x2="24.6562" y2="3" gradientUnits="userSpaceOnUse">
<stop stop-color="#536C6D"/>
<stop offset="0.5" stop-color="#81A2A3"/>
<stop offset="0.51" stop-color="#8AAAAB"/>
<stop offset="0.55" stop-color="#A0BEC0"/>
<stop offset="0.61" stop-color="#B1CDD0"/>
<stop offset="0.67" stop-color="#BCD8DB"/>
<stop offset="0.76" stop-color="#C3DEE1"/>
<stop offset="1" stop-color="#C5E0E3"/>
</linearGradient>
<linearGradient id="paint1_linear_51_530" x1="9.98437" y1="42.2386" x2="38.0967" y2="14.3016" gradientUnits="userSpaceOnUse">
<stop stop-color="#C5E0E3" stop-opacity="0.7"/>
<stop offset="1" stop-color="#536C6D"/>
</linearGradient>
<linearGradient id="paint2_linear_51_530" x1="15.9687" y1="20.3643" x2="42.3944" y2="45.7181" gradientUnits="userSpaceOnUse">
<stop stop-color="#81A2A3"/>
<stop offset="1" stop-color="#81A2A3" stop-opacity="0"/>
</linearGradient>
<linearGradient id="paint3_linear_51_530" x1="19.3125" y1="23.6957" x2="11.6737" y2="15.7878" gradientUnits="userSpaceOnUse">
<stop stop-color="#536C6D" stop-opacity="0.2"/>
<stop offset="1" stop-color="#536C6D"/>
</linearGradient>
<linearGradient id="paint4_linear_51_530" x1="23.6562" y1="39.6143" x2="23.6562" y2="14.7229" gradientUnits="userSpaceOnUse">
<stop stop-color="#536C6D"/>
<stop offset="1" stop-color="#81A2A3"/>
</linearGradient>
<linearGradient id="paint5_linear_51_530" x1="25.375" y1="21.0557" x2="24.6796" y2="5.26318" gradientUnits="userSpaceOnUse">
<stop offset="0.01" stop-color="#536C6D"/>
<stop offset="1" stop-color="#81A2A3"/>
</linearGradient>
</defs>
</svg>
