<svg width="50" height="50" viewBox="0 0 50 50" fill="none" xmlns="http://www.w3.org/2000/svg">
<path d="M24.6562 47C10.0938 47 0.671875 40.4786 0.671875 30.4057C0.671875 23.5857 5.14062 14.6914 12.5781 10.0714L13.2188 7.54143C13.5161 6.90437 13.9807 6.36103 14.5625 5.97L12.6719 3.34571L18.5 3H19.1094C20.7829 3.04961 22.4294 3.43683 23.9513 4.13868C25.4732 4.84053 26.8394 5.8427 27.9687 7.08571C40.7969 8.89286 48.6406 21.7 48.6406 30.4057C48.6406 40.4786 39.2344 47 24.6562 47Z" fill="url(#paint0_linear_51_454)"/>
<path d="M24.6562 44.5957C11.5469 44.5957 3.125 39.0328 3.125 30.4057C3.125 24.0414 7.8125 14 16.9062 10.6214L15.1406 9.04996L15.3906 8.49996C15.5655 8.2144 15.8207 7.98737 16.1238 7.84753C16.4269 7.70768 16.7644 7.66131 17.0937 7.71425C17.7357 7.74007 18.3714 7.85103 18.9844 8.04425L17.1875 5.49854H18.6562H19.125C20.6102 5.56176 22.0639 5.9486 23.3858 6.63232C24.7078 7.31605 25.8663 8.28034 26.7812 9.45854C38.6875 10.6057 46.2656 22.6114 46.2656 30.5C46.25 39.0328 37.7656 44.5957 24.6562 44.5957Z" fill="url(#paint1_linear_51_454)"/>
<path d="M35.5781 13.45C32.846 11.5538 29.6675 10.4106 26.3594 10.1343C25.4828 8.92402 24.3398 7.93403 23.0198 7.24162C21.6998 6.54922 20.2385 6.17316 18.75 6.14282L21.2656 9.64711C21.2656 9.64711 16.7969 7.50997 16.1875 8.82997L18.5625 10.8728C9.3125 13.4971 3.9375 23.4443 3.9375 30.3428C3.9375 34.8371 6.46875 38.4043 10.7344 40.73C10.6144 40.0761 10.5413 39.4144 10.5156 38.75C10.4614 37.9285 10.4614 37.1043 10.5156 36.2828C10.5156 35.7171 10.5781 35.12 10.7031 34.4914C10.8125 33.8157 10.9375 33.1085 11.125 32.3542C11.3019 31.6313 11.5157 30.9179 11.7656 30.2171C12.0837 29.3109 12.4541 28.4241 12.875 27.5614C13.2344 26.8542 13.625 26.1471 14.0781 25.4243C14.5071 24.7353 14.9713 24.0692 15.4687 23.4285C15.9375 22.8104 16.4583 22.1976 17.0312 21.59C17.8366 20.7019 18.7033 19.8722 19.625 19.1071C20.1233 18.68 20.6449 18.2813 21.1875 17.9128C21.7031 17.5357 22.2344 17.19 22.75 16.8757C23.75 16.272 24.7948 15.7467 25.875 15.3043C26.4219 15.0685 26.9375 14.8643 27.4375 14.6914L29 14.22C29.8794 13.9811 30.7714 13.7922 31.6719 13.6543C32.2969 13.56 32.8594 13.5128 33.3594 13.4814C34.0968 13.4094 34.8389 13.3989 35.5781 13.45Z" fill="url(#paint2_linear_51_454)"/>
<path d="M24.6562 39.1429C23.2267 39.2251 21.7988 38.9546 20.497 38.3547C19.1953 37.7549 18.0591 36.844 17.1875 35.7014C15.5485 33.1716 14.7498 30.184 14.9062 27.1686C14.7578 24.1787 15.5566 21.2185 17.1875 18.7143C18.0572 17.5508 19.2007 16.6229 20.5153 16.0139C21.8299 15.405 23.2743 15.1341 24.7187 15.2257C26.155 15.1463 27.5886 15.4228 28.8936 16.0311C30.1986 16.6394 31.3351 17.5608 32.2031 18.7143C33.8456 21.2432 34.6497 24.2303 34.5 27.2471C34.6518 30.2643 33.8476 33.252 32.2031 35.78C31.3156 36.9197 30.1631 37.8224 28.8471 38.4089C27.5311 38.9953 26.0919 39.2473 24.6562 39.1429Z" fill="url(#paint3_linear_51_454)"/>
<path d="M24.6563 37.0057C23.5583 37.0893 22.4569 36.8976 21.4506 36.4479C20.4444 35.9981 19.5648 35.3043 18.8907 34.4286C17.519 32.2743 16.8625 29.7378 17.0157 27.1843C16.8625 24.6308 17.519 22.0943 18.8907 19.94C19.5631 19.0615 20.4419 18.3646 21.4483 17.9121C22.4546 17.4595 23.557 17.2654 24.6563 17.3472C25.7579 17.2655 26.8625 17.4596 27.8713 17.9121C28.8801 18.3645 29.7618 19.0613 30.4376 19.94C31.8092 22.0943 32.4658 24.6308 32.3126 27.1843C32.4658 29.7378 31.8092 32.2743 30.4376 34.4286C29.7601 35.3045 28.8777 35.9982 27.869 36.4478C26.8603 36.8975 25.7566 37.0891 24.6563 37.0057ZM24.6563 33.5486C25.1221 33.5986 25.5924 33.5125 26.0108 33.3007C26.4292 33.0889 26.7781 32.7603 27.0157 32.3543C27.5073 31.2939 27.7326 30.1284 27.672 28.96V25.3772C27.7326 24.2088 27.5073 23.0433 27.0157 21.9829C26.7753 21.5795 26.4259 21.2531 26.0082 21.0417C25.5905 20.8303 25.1217 20.7425 24.6563 20.7886C24.191 20.7425 23.7222 20.8303 23.3045 21.0417C22.8868 21.2531 22.5374 21.5795 22.297 21.9829C21.8054 23.0433 21.58 24.2088 21.6407 25.3772V28.96C21.58 30.1284 21.8054 31.2939 22.297 32.3543C22.5345 32.7603 22.8834 33.0889 23.3019 33.3007C23.7203 33.5125 24.1905 33.5986 24.6563 33.5486Z" fill="white"/>
<path d="M41.3906 8.50004C45.6875 6.39432 49.7969 8.98718 50 12.4286C50 12.4286 47.9219 10.3229 45.3125 13.2615C43.0469 15.87 43.8281 21.5272 43.8281 21.5272C41.6623 21.0858 39.7267 19.8754 38.375 18.1172C37.1426 16.7142 36.2306 15.0568 35.7031 13.2615C35.7031 13.2615 35.5156 11.4072 41.3906 8.50004ZM8.57812 8.50004C4.3125 6.39432 0.203125 8.98718 0 12.4286C0 12.4286 2.07812 10.3229 4.6875 13.2615C6.95312 15.87 6.25 21.5272 6.25 21.5272C8.41583 21.0858 10.3514 19.8754 11.7031 18.1172C12.9016 16.7206 13.7863 15.0804 14.2969 13.3086C14.2969 13.3086 14.4844 11.4072 8.60938 8.50004H8.57812Z" fill="url(#paint4_linear_51_454)"/>
<defs>
<linearGradient id="paint0_linear_51_454" x1="24.6563" y1="47" x2="24.6563" y2="3" gradientUnits="userSpaceOnUse">
<stop stop-color="#B378FF"/>
<stop offset="1" stop-color="#8CEBFF"/>
</linearGradient>
<linearGradient id="paint1_linear_51_454" x1="9.98437" y1="42.2385" x2="38.0967" y2="14.3016" gradientUnits="userSpaceOnUse">
<stop stop-color="#FFA0FF"/>
<stop offset="1" stop-color="#FFEEFF"/>
</linearGradient>
<linearGradient id="paint2_linear_51_454" x1="19.3125" y1="23.6957" x2="11.6737" y2="15.7877" gradientUnits="userSpaceOnUse">
<stop stop-color="#B3B0FF" stop-opacity="0.2"/>
<stop offset="1" stop-color="#B3B0FF"/>
</linearGradient>
<linearGradient id="paint3_linear_51_454" x1="24.6562" y1="39.19" x2="24.6562" y2="15.1471" gradientUnits="userSpaceOnUse">
<stop stop-color="#DF37FF"/>
<stop offset="1" stop-color="#FF78FF"/>
</linearGradient>
<linearGradient id="paint4_linear_51_454" x1="25.375" y1="21.0558" x2="24.6796" y2="5.26324" gradientUnits="userSpaceOnUse">
<stop offset="0.01" stop-color="#B3B0FF"/>
<stop offset="1" stop-color="#FFA0FF"/>
</linearGradient>
</defs>
</svg>
